<svg xmlns="http://www.w3.org/2000/svg" viewBox="0 0 136.37 63.14"><defs><style>.cls-1{fill:#529eff;}.cls-2{fill:#fff;}</style></defs><g id="Layer_2" data-name="Layer 2"><g id="Layer_1-2" data-name="Layer 1"><path class="cls-1" d="M17.85,49.35c-5.93,0-10.89-2.58-12.7-6.44H5a22.35,22.35,0,0,1,.19,3.48V63.14H0V15.27H4.83v2.25A24.64,24.64,0,0,1,4.64,21h.19c2.19-3.73,7-6.76,13.27-6.76C28,14.24,35,21.65,35,31.76S27.9,49.35,17.85,49.35ZM5,31.76c0,7.48,5.22,13,12.44,13,7,0,12.3-5.47,12.3-12.95s-5.28-13-12.3-13C10.18,18.81,5,24.29,5,31.76Z"/><path class="cls-1" d="M78.44,0H83.6V48.32H78.44Z"/><path class="cls-1" d="M89.3,23.89h5.16V48.32H89.3Z"/><path class="cls-2" d="M89.3,0h5.16V23.89H89.3Z"/><path class="cls-2" d="M99.58,2.61a2.65,2.65,0,1,1,2.65,2.61A2.61,2.61,0,0,1,99.58,2.61ZM100,23.89V7.39h4.46v16.5Z"/><path class="cls-2" d="M109.49,11.21h-1.56V7.39h1.56V3.18H114V7.39h3.82v3.82H114V20h3.34v3.89h-7.8Z"/><path class="cls-2" d="M128.35,24.4a8.48,8.48,0,0,1-8.86-8.76,8.44,8.44,0,0,1,8.79-8.76c4.84,0,8.09,3.66,8.09,8.76a7.15,7.15,0,0,1-.12,1.4H124.11a4.06,4.06,0,0,0,4.27,3.41,4.75,4.75,0,0,0,4.14-1.95l2.58,2.71A8,8,0,0,1,128.35,24.4Zm-4.24-10.2H132a3.75,3.75,0,0,0-3.82-3.43A4,4,0,0,0,124.11,14.2Z"/><path class="cls-1" d="M67.8,26h0l3.42-3.41.34-.35Z"/><path class="cls-1" d="M74.17,31.76c0,10.05-7.41,17.59-17.46,17.59S39.25,41.81,39.25,31.76A17.05,17.05,0,0,1,56.71,14.24a17.07,17.07,0,0,1,14.85,8h0L67.8,26h0l-12,12-3-2.94-4.5-4.53,2.92-2.92,4.53,4.5,9.7-9.7a11.87,11.87,0,0,0-8.76-3.65c-7.08,0-12.17,5.47-12.17,13s5.09,13,12.17,13S69,39.17,69,31.76a14.76,14.76,0,0,0-.53-4l4-4A18.34,18.34,0,0,1,74.17,31.76Z"/><polygon class="cls-1" points="71.56 22.25 71.22 22.6 67.8 26.01 67.8 26.01 71.56 22.25"/><polygon class="cls-1" points="71.56 22.25 71.56 22.25 71.56 22.25 71.56 22.25"/><polygon class="cls-1" points="67.8 26.01 71.56 22.25 71.22 22.6 67.8 26.01 67.8 26.01"/><polygon class="cls-1" points="71.56 22.25 71.56 22.25 71.56 22.25 71.56 22.25"/></g></g></svg>